<mxfile host="65bd71144e">
    <diagram id="3yhMaOZ3l9cQXvcONKa9" name="Page-1">
        <mxGraphModel dx="1155" dy="1448" grid="1" gridSize="10" guides="1" tooltips="1" connect="1" arrows="1" fold="1" page="1" pageScale="1" pageWidth="1100" pageHeight="850" math="0" shadow="0">
            <root>
                <mxCell id="0"/>
                <mxCell id="1" parent="0"/>
                <mxCell id="43" value="" style="group" parent="1" vertex="1" connectable="0">
                    <mxGeometry x="79.99999999999999" y="-390" width="880" height="595.0395256916996" as="geometry"/>
                </mxCell>
                <mxCell id="44" value="VPC" style="points=[[0,0],[0.25,0],[0.5,0],[0.75,0],[1,0],[1,0.25],[1,0.5],[1,0.75],[1,1],[0.75,1],[0.5,1],[0.25,1],[0,1],[0,0.75],[0,0.5],[0,0.25]];outlineConnect=0;gradientColor=none;html=1;whiteSpace=wrap;fontSize=12;fontStyle=0;container=0;pointerEvents=0;collapsible=0;recursiveResize=0;shape=mxgraph.aws4.group;grIcon=mxgraph.aws4.group_vpc;strokeColor=#248814;fillColor=none;verticalAlign=top;align=left;spacingLeft=30;fontColor=#AAB7B8;dashed=0;" parent="43" vertex="1">
                    <mxGeometry x="40.000000000000014" y="98.76999999999998" width="720" height="381.23" as="geometry"/>
                </mxCell>
                <mxCell id="45" value="Public subnet" style="points=[[0,0],[0.25,0],[0.5,0],[0.75,0],[1,0],[1,0.25],[1,0.5],[1,0.75],[1,1],[0.75,1],[0.5,1],[0.25,1],[0,1],[0,0.75],[0,0.5],[0,0.25]];outlineConnect=0;gradientColor=none;html=1;whiteSpace=wrap;fontSize=12;fontStyle=0;container=1;pointerEvents=0;collapsible=0;recursiveResize=0;shape=mxgraph.aws4.group;grIcon=mxgraph.aws4.group_security_group;grStroke=0;strokeColor=#248814;fillColor=#E9F3E6;verticalAlign=top;align=left;spacingLeft=30;fontColor=#248814;dashed=0;" parent="43" vertex="1">
                    <mxGeometry x="89.00000000000001" y="139.99" width="239" height="130.01" as="geometry"/>
                </mxCell>
                <mxCell id="46" value="" style="sketch=0;html=1;dashed=0;whitespace=wrap;fillColor=#2875E2;strokeColor=#ffffff;points=[[0.005,0.63,0],[0.1,0.2,0],[0.9,0.2,0],[0.5,0,0],[0.995,0.63,0],[0.72,0.99,0],[0.5,1,0],[0.28,0.99,0]];shape=mxgraph.kubernetes.icon;prIcon=node" parent="45" vertex="1">
                    <mxGeometry x="98" y="58.12757257734769" width="50" height="32.97260460678751" as="geometry"/>
                </mxCell>
                <mxCell id="47" value="AWS internal&lt;br&gt;node" style="text;html=1;strokeColor=none;fillColor=none;align=center;verticalAlign=middle;whiteSpace=wrap;rounded=0;" parent="45" vertex="1">
                    <mxGeometry x="54" y="105.10017718413518" width="140" height="20.607877879242196" as="geometry"/>
                </mxCell>
                <mxCell id="48" value="Private subnet" style="points=[[0,0],[0.25,0],[0.5,0],[0.75,0],[1,0],[1,0.25],[1,0.5],[1,0.75],[1,1],[0.75,1],[0.5,1],[0.25,1],[0,1],[0,0.75],[0,0.5],[0,0.25]];outlineConnect=0;gradientColor=none;html=1;whiteSpace=wrap;fontSize=12;fontStyle=0;container=1;pointerEvents=0;collapsible=0;recursiveResize=0;shape=mxgraph.aws4.group;grIcon=mxgraph.aws4.group_security_group;grStroke=0;strokeColor=#147EBA;fillColor=#E6F2F8;verticalAlign=top;align=left;spacingLeft=30;fontColor=#147EBA;dashed=0;" parent="43" vertex="1">
                    <mxGeometry x="89.00000000000001" y="310.33065285539044" width="240" height="137.3858525282813" as="geometry"/>
                </mxCell>
                <mxCell id="49" value="" style="sketch=0;points=[[0,0,0],[0.25,0,0],[0.5,0,0],[0.75,0,0],[1,0,0],[0,1,0],[0.25,1,0],[0.5,1,0],[0.75,1,0],[1,1,0],[0,0.25,0],[0,0.5,0],[0,0.75,0],[1,0.25,0],[1,0.5,0],[1,0.75,0]];outlineConnect=0;fontColor=#232F3E;gradientColor=#F78E04;gradientDirection=north;fillColor=#D05C17;strokeColor=#ffffff;dashed=0;verticalLabelPosition=bottom;verticalAlign=top;align=center;html=1;fontSize=12;fontStyle=0;aspect=fixed;shape=mxgraph.aws4.resourceIcon;resIcon=mxgraph.aws4.ec2;" parent="48" vertex="1">
                    <mxGeometry x="84" y="41.9026850211258" width="53.580482486029716" height="53.580482486029716" as="geometry"/>
                </mxCell>
                <mxCell id="50" value="Public subnet" style="points=[[0,0],[0.25,0],[0.5,0],[0.75,0],[1,0],[1,0.25],[1,0.5],[1,0.75],[1,1],[0.75,1],[0.5,1],[0.25,1],[0,1],[0,0.75],[0,0.5],[0,0.25]];outlineConnect=0;gradientColor=none;html=1;whiteSpace=wrap;fontSize=12;fontStyle=0;container=1;pointerEvents=0;collapsible=0;recursiveResize=0;shape=mxgraph.aws4.group;grIcon=mxgraph.aws4.group_security_group;grStroke=0;strokeColor=#248814;fillColor=#E9F3E6;verticalAlign=top;align=left;spacingLeft=30;fontColor=#248814;dashed=0;" parent="43" vertex="1">
                    <mxGeometry x="459" y="139.99" width="239" height="130.01" as="geometry"/>
                </mxCell>
                <mxCell id="51" value="" style="sketch=0;html=1;dashed=0;whitespace=wrap;fillColor=#2875E2;strokeColor=#ffffff;points=[[0.005,0.63,0],[0.1,0.2,0],[0.9,0.2,0],[0.5,0,0],[0.995,0.63,0],[0.72,0.99,0],[0.5,1,0],[0.28,0.99,0]];shape=mxgraph.kubernetes.icon;prIcon=node" parent="50" vertex="1">
                    <mxGeometry x="91" y="56.12757257734769" width="50" height="32.97260460678751" as="geometry"/>
                </mxCell>
                <mxCell id="52" value="AWS internal&lt;br&gt;node" style="text;html=1;strokeColor=none;fillColor=none;align=center;verticalAlign=middle;whiteSpace=wrap;rounded=0;" parent="50" vertex="1">
                    <mxGeometry x="50" y="105.10017718413518" width="140" height="20.607877879242196" as="geometry"/>
                </mxCell>
                <mxCell id="53" value="Private subnet" style="points=[[0,0],[0.25,0],[0.5,0],[0.75,0],[1,0],[1,0.25],[1,0.5],[1,0.75],[1,1],[0.75,1],[0.5,1],[0.25,1],[0,1],[0,0.75],[0,0.5],[0,0.25]];outlineConnect=0;gradientColor=none;html=1;whiteSpace=wrap;fontSize=12;fontStyle=0;container=1;pointerEvents=0;collapsible=0;recursiveResize=0;shape=mxgraph.aws4.group;grIcon=mxgraph.aws4.group_security_group;grStroke=0;strokeColor=#147EBA;fillColor=#E6F2F8;verticalAlign=top;align=left;spacingLeft=30;fontColor=#147EBA;dashed=0;" parent="43" vertex="1">
                    <mxGeometry x="459" y="310.33065285539044" width="240" height="137.3858525282813" as="geometry"/>
                </mxCell>
                <mxCell id="54" value="" style="sketch=0;points=[[0,0,0],[0.25,0,0],[0.5,0,0],[0.75,0,0],[1,0,0],[0,1,0],[0.25,1,0],[0.5,1,0],[0.75,1,0],[1,1,0],[0,0.25,0],[0,0.5,0],[0,0.75,0],[1,0.25,0],[1,0.5,0],[1,0.75,0]];outlineConnect=0;fontColor=#232F3E;gradientColor=#F78E04;gradientDirection=north;fillColor=#D05C17;strokeColor=#ffffff;dashed=0;verticalLabelPosition=bottom;verticalAlign=top;align=center;html=1;fontSize=12;fontStyle=0;aspect=fixed;shape=mxgraph.aws4.resourceIcon;resIcon=mxgraph.aws4.ec2;" parent="53" vertex="1">
                    <mxGeometry x="84" y="41.9026850211258" width="53.580482486029716" height="53.580482486029716" as="geometry"/>
                </mxCell>
                <mxCell id="55" style="edgeStyle=orthogonalEdgeStyle;html=1;entryX=0.5;entryY=0;entryDx=0;entryDy=0;entryPerimeter=0;" parent="43" source="57" target="46" edge="1">
                    <mxGeometry relative="1" as="geometry"/>
                </mxCell>
                <mxCell id="56" style="edgeStyle=orthogonalEdgeStyle;html=1;entryX=0.5;entryY=0;entryDx=0;entryDy=0;entryPerimeter=0;" parent="43" source="57" target="51" edge="1">
                    <mxGeometry relative="1" as="geometry"/>
                </mxCell>
                <mxCell id="57" value="" style="sketch=0;outlineConnect=0;fontColor=#232F3E;gradientColor=none;fillColor=#4D27AA;strokeColor=none;dashed=0;verticalLabelPosition=bottom;verticalAlign=top;align=center;html=1;fontSize=12;fontStyle=0;aspect=fixed;pointerEvents=1;shape=mxgraph.aws4.application_load_balancer;" parent="43" vertex="1">
                    <mxGeometry x="363" y="146.85975194221072" width="53.58048248602971" height="53.58048248602971" as="geometry"/>
                </mxCell>
                <mxCell id="58" style="edgeStyle=orthogonalEdgeStyle;html=1;entryX=1;entryY=0.5;entryDx=0;entryDy=0;entryPerimeter=0;" parent="43" source="60" target="49" edge="1">
                    <mxGeometry relative="1" as="geometry">
                        <Array as="points">
                            <mxPoint x="370" y="379"/>
                        </Array>
                        <mxPoint x="380" y="282.8534823497341" as="sourcePoint"/>
                    </mxGeometry>
                </mxCell>
                <mxCell id="59" style="edgeStyle=orthogonalEdgeStyle;html=1;entryX=0;entryY=0.5;entryDx=0;entryDy=0;entryPerimeter=0;" parent="43" source="60" target="54" edge="1">
                    <mxGeometry relative="1" as="geometry">
                        <Array as="points">
                            <mxPoint x="410" y="379"/>
                        </Array>
                        <mxPoint x="410" y="282.8534823497341" as="sourcePoint"/>
                    </mxGeometry>
                </mxCell>
                <mxCell id="60" value="" style="sketch=0;outlineConnect=0;fontColor=#232F3E;gradientColor=none;fillColor=#4D27AA;strokeColor=none;dashed=0;verticalLabelPosition=bottom;verticalAlign=top;align=center;html=1;fontSize=12;fontStyle=0;aspect=fixed;pointerEvents=1;shape=mxgraph.aws4.route_table;" parent="43" vertex="1">
                    <mxGeometry x="363" y="252.64685838898728" width="53.58048248602971" height="52.2066239607469" as="geometry"/>
                </mxCell>
                <mxCell id="61" style="edgeStyle=orthogonalEdgeStyle;html=1;" parent="43" source="46" target="60" edge="1">
                    <mxGeometry relative="1" as="geometry">
                        <Array as="points">
                            <mxPoint x="223" y="278.7501703693608"/>
                        </Array>
                    </mxGeometry>
                </mxCell>
                <mxCell id="62" style="edgeStyle=orthogonalEdgeStyle;html=1;" parent="43" source="51" target="60" edge="1">
                    <mxGeometry relative="1" as="geometry">
                        <Array as="points">
                            <mxPoint x="575" y="278.7501703693608"/>
                        </Array>
                    </mxGeometry>
                </mxCell>
                <mxCell id="63" value="Application Laod Balancer" style="text;html=1;strokeColor=none;fillColor=none;align=center;verticalAlign=middle;whiteSpace=wrap;rounded=0;" parent="43" vertex="1">
                    <mxGeometry x="330" y="201.81409295352324" width="140" height="20.607877879242196" as="geometry"/>
                </mxCell>
                <mxCell id="64" style="edgeStyle=orthogonalEdgeStyle;html=1;" parent="43" source="65" target="57" edge="1">
                    <mxGeometry relative="1" as="geometry"/>
                </mxCell>
                <mxCell id="65" value="" style="sketch=0;pointerEvents=1;shadow=0;dashed=0;html=1;strokeColor=none;labelPosition=center;verticalLabelPosition=bottom;verticalAlign=top;align=center;fillColor=#505050;shape=mxgraph.mscae.intune.user_group" parent="43" vertex="1">
                    <mxGeometry x="365" width="50" height="30.711462450592883" as="geometry"/>
                </mxCell>
                <mxCell id="66" value="Availability Zone 2" style="fillColor=none;strokeColor=#147EBA;dashed=1;verticalAlign=top;fontStyle=0;fontColor=#147EBA;" parent="43" vertex="1">
                    <mxGeometry x="450" y="120" width="270" height="340" as="geometry"/>
                </mxCell>
                <mxCell id="67" value="Availability Zone 1" style="fillColor=none;strokeColor=#147EBA;dashed=1;verticalAlign=top;fontStyle=0;fontColor=#147EBA;" parent="43" vertex="1">
                    <mxGeometry x="80.00000000000001" y="116.65999999999997" width="270" height="343.34" as="geometry"/>
                </mxCell>
                <mxCell id="68" value="https://yoursite.io" style="text;html=1;strokeColor=none;fillColor=#FFE6CC;align=center;verticalAlign=middle;whiteSpace=wrap;rounded=0;" parent="43" vertex="1">
                    <mxGeometry x="440.28999999999996" y="2.9051383399209385" width="140" height="24.90118577075099" as="geometry"/>
                </mxCell>
                <mxCell id="69" style="edgeStyle=orthogonalEdgeStyle;html=1;entryX=0.444;entryY=0.69;entryDx=0;entryDy=0;entryPerimeter=0;" parent="43" source="70" target="66" edge="1">
                    <mxGeometry relative="1" as="geometry">
                        <Array as="points">
                            <mxPoint x="570" y="302.1343873517786"/>
                        </Array>
                    </mxGeometry>
                </mxCell>
                <mxCell id="70" value="Launch template" style="text;html=1;strokeColor=none;fillColor=#FFE6CC;align=center;verticalAlign=middle;whiteSpace=wrap;rounded=0;" parent="43" vertex="1">
                    <mxGeometry x="730" y="289.6837944664031" width="110" height="24.90118577075099" as="geometry"/>
                </mxCell>
                <mxCell id="71" style="edgeStyle=orthogonalEdgeStyle;html=1;entryX=0.741;entryY=0.775;entryDx=0;entryDy=0;entryPerimeter=0;" parent="43" source="72" target="66" edge="1">
                    <mxGeometry relative="1" as="geometry"/>
                </mxCell>
                <mxCell id="72" value="Auto Scaling Policy" style="text;html=1;strokeColor=#d79b00;fillColor=#ffe6cc;align=center;verticalAlign=middle;whiteSpace=wrap;rounded=0;" parent="43" vertex="1">
                    <mxGeometry x="733" y="452.8699604743083" width="110" height="24.90118577075099" as="geometry"/>
                </mxCell>
                <mxCell id="73" value="" style="sketch=0;points=[[0,0,0],[0.25,0,0],[0.5,0,0],[0.75,0,0],[1,0,0],[0,1,0],[0.25,1,0],[0.5,1,0],[0.75,1,0],[1,1,0],[0,0.25,0],[0,0.5,0],[0,0.75,0],[1,0.25,0],[1,0.5,0],[1,0.75,0]];points=[[0,0,0],[0.25,0,0],[0.5,0,0],[0.75,0,0],[1,0,0],[0,1,0],[0.25,1,0],[0.5,1,0],[0.75,1,0],[1,1,0],[0,0.25,0],[0,0.5,0],[0,0.75,0],[1,0.25,0],[1,0.5,0],[1,0.75,0]];outlineConnect=0;fontColor=#232F3E;gradientColor=#F34482;gradientDirection=north;fillColor=#BC1356;strokeColor=#ffffff;dashed=0;verticalLabelPosition=bottom;verticalAlign=top;align=center;html=1;fontSize=12;fontStyle=0;aspect=fixed;shape=mxgraph.aws4.resourceIcon;resIcon=mxgraph.aws4.cloudwatch_2;" parent="43" vertex="1">
                    <mxGeometry x="200.57" y="505.395256916996" width="64.74308300395256" height="64.74308300395256" as="geometry"/>
                </mxCell>
                <mxCell id="74" value="CloudWatch" style="text;html=1;strokeColor=none;fillColor=none;align=center;verticalAlign=middle;whiteSpace=wrap;rounded=0;" parent="43" vertex="1">
                    <mxGeometry x="200.85999999999996" y="570.1383399209486" width="80" height="24.90118577075099" as="geometry"/>
                </mxCell>
                <mxCell id="75" value="" style="sketch=0;outlineConnect=0;fontColor=#232F3E;gradientColor=none;fillColor=#B0084D;strokeColor=none;dashed=0;verticalLabelPosition=bottom;verticalAlign=top;align=center;html=1;fontSize=12;fontStyle=0;aspect=fixed;pointerEvents=1;shape=mxgraph.aws4.alarm;" parent="43" vertex="1">
                    <mxGeometry x="358.56999999999994" y="505.395256916996" width="64.74308300395256" height="64.74308300395256" as="geometry"/>
                </mxCell>
                <mxCell id="76" style="edgeStyle=orthogonalEdgeStyle;html=1;" parent="43" source="73" target="75" edge="1">
                    <mxGeometry relative="1" as="geometry"/>
                </mxCell>
                <mxCell id="77" value="Metric/Alarm" style="text;html=1;strokeColor=none;fillColor=none;align=center;verticalAlign=middle;whiteSpace=wrap;rounded=0;" parent="43" vertex="1">
                    <mxGeometry x="356.56999999999994" y="570.1383399209486" width="80" height="24.90118577075099" as="geometry"/>
                </mxCell>
                <mxCell id="78" value="Scale Action" style="text;html=1;strokeColor=none;fillColor=none;align=center;verticalAlign=middle;whiteSpace=wrap;rounded=0;" parent="43" vertex="1">
                    <mxGeometry x="436.57000000000005" y="513.695652173913" width="80" height="24.90118577075099" as="geometry"/>
                </mxCell>
                <mxCell id="79" value="" style="rounded=1;arcSize=3;dashed=1;strokeColor=#ff0000;fillColor=none;gradientColor=none;dashPattern=8 4;strokeWidth=1;" parent="43" vertex="1">
                    <mxGeometry x="180" y="143" width="430" height="97" as="geometry"/>
                </mxCell>
                <mxCell id="80" value="Auto Scaling group" style="points=[[0,0],[0.25,0],[0.5,0],[0.75,0],[1,0],[1,0.25],[1,0.5],[1,0.75],[1,1],[0.75,1],[0.5,1],[0.25,1],[0,1],[0,0.75],[0,0.5],[0,0.25]];outlineConnect=0;gradientColor=none;html=1;whiteSpace=wrap;fontSize=12;fontStyle=0;container=1;pointerEvents=0;collapsible=0;recursiveResize=0;shape=mxgraph.aws4.groupCenter;grIcon=mxgraph.aws4.group_auto_scaling_group;grStroke=1;strokeColor=#0000FF;fillColor=none;verticalAlign=top;align=center;fontColor=#D86613;dashed=1;spacingTop=25;strokeWidth=1;" parent="43" vertex="1">
                    <mxGeometry x="132" y="332.94110671936755" width="520" height="102.7505928853755" as="geometry"/>
                </mxCell>
                <mxCell id="81" value="" style="rounded=1;arcSize=3;dashed=1;strokeColor=#ff0000;fillColor=none;gradientColor=none;dashPattern=8 4;strokeWidth=1;" parent="80" vertex="1">
                    <mxGeometry x="37.58" y="5.75" width="430" height="84.25" as="geometry"/>
                </mxCell>
                <mxCell id="82" style="edgeStyle=orthogonalEdgeStyle;html=1;entryX=0.75;entryY=1;entryDx=0;entryDy=0;" parent="43" source="75" target="80" edge="1">
                    <mxGeometry relative="1" as="geometry">
                        <mxPoint x="560" y="455.69169960474306" as="targetPoint"/>
                        <Array as="points">
                            <mxPoint x="522" y="538"/>
                        </Array>
                    </mxGeometry>
                </mxCell>
                <mxCell id="83" value="AWS Cloud" style="sketch=0;outlineConnect=0;gradientColor=none;html=1;whiteSpace=wrap;fontSize=12;fontStyle=0;shape=mxgraph.aws4.group;grIcon=mxgraph.aws4.group_aws_cloud;strokeColor=#000000;fillColor=none;verticalAlign=top;align=left;spacingLeft=30;fontColor=#AAB7B8;dashed=0;" parent="43" vertex="1">
                    <mxGeometry y="61" width="790" height="530" as="geometry"/>
                </mxCell>
                <mxCell id="84" value="Security Group&lt;br&gt;InBound 80 from 0.0.0.0/0" style="text;html=1;strokeColor=#b85450;fillColor=#f8cecc;align=left;verticalAlign=middle;whiteSpace=wrap;rounded=0;" parent="43" vertex="1">
                    <mxGeometry x="730" y="175" width="150" height="30" as="geometry"/>
                </mxCell>
                <mxCell id="85" value="" style="endArrow=classic;html=1;rounded=0;" parent="43" edge="1">
                    <mxGeometry width="50" height="50" relative="1" as="geometry">
                        <mxPoint x="730" y="191.08" as="sourcePoint"/>
                        <mxPoint x="610" y="191.08" as="targetPoint"/>
                    </mxGeometry>
                </mxCell>
                <mxCell id="86" value="Security Group&lt;br&gt;InBound 80 from ALB" style="text;html=1;strokeColor=#b85450;fillColor=#f8cecc;align=left;verticalAlign=middle;whiteSpace=wrap;rounded=0;" parent="43" vertex="1">
                    <mxGeometry x="730" y="340" width="140" height="30" as="geometry"/>
                </mxCell>
                <mxCell id="87" value="" style="endArrow=classic;html=1;rounded=0;" parent="43" edge="1">
                    <mxGeometry width="50" height="50" relative="1" as="geometry">
                        <mxPoint x="730" y="356.0799999999999" as="sourcePoint"/>
                        <mxPoint x="600" y="356" as="targetPoint"/>
                    </mxGeometry>
                </mxCell>
            </root>
        </mxGraphModel>
    </diagram>
    <diagram id="pEKF9M2n2mNm79YNVRQX" name="Page-2">
        <mxGraphModel dx="1444" dy="748" grid="1" gridSize="10" guides="1" tooltips="1" connect="1" arrows="1" fold="1" page="1" pageScale="1" pageWidth="1100" pageHeight="850" math="0" shadow="0">
            <root>
                <mxCell id="0"/>
                <mxCell id="1" parent="0"/>
                <mxCell id="8mb82FppSflPmRdexe5n-42" value="" style="group" vertex="1" connectable="0" parent="1">
                    <mxGeometry x="80" y="70" width="1010" height="600" as="geometry"/>
                </mxCell>
                <mxCell id="8mb82FppSflPmRdexe5n-2" value="Private subnet" style="points=[[0,0],[0.25,0],[0.5,0],[0.75,0],[1,0],[1,0.25],[1,0.5],[1,0.75],[1,1],[0.75,1],[0.5,1],[0.25,1],[0,1],[0,0.75],[0,0.5],[0,0.25]];outlineConnect=0;gradientColor=none;html=1;whiteSpace=wrap;fontSize=12;fontStyle=0;container=1;pointerEvents=0;collapsible=0;recursiveResize=0;shape=mxgraph.aws4.group;grIcon=mxgraph.aws4.group_security_group;grStroke=0;strokeColor=#147EBA;fillColor=#E6F2F8;verticalAlign=top;align=left;spacingLeft=30;fontColor=#147EBA;dashed=0;" vertex="1" parent="8mb82FppSflPmRdexe5n-42">
                    <mxGeometry x="496" y="70" width="200" height="160" as="geometry"/>
                </mxCell>
                <mxCell id="8mb82FppSflPmRdexe5n-1" value="" style="sketch=0;points=[[0,0,0],[0.25,0,0],[0.5,0,0],[0.75,0,0],[1,0,0],[0,1,0],[0.25,1,0],[0.5,1,0],[0.75,1,0],[1,1,0],[0,0.25,0],[0,0.5,0],[0,0.75,0],[1,0.25,0],[1,0.5,0],[1,0.75,0]];outlineConnect=0;fontColor=#232F3E;gradientColor=#F78E04;gradientDirection=north;fillColor=#D05C17;strokeColor=#ffffff;dashed=0;verticalLabelPosition=bottom;verticalAlign=top;align=center;html=1;fontSize=12;fontStyle=0;aspect=fixed;shape=mxgraph.aws4.resourceIcon;resIcon=mxgraph.aws4.ec2;" vertex="1" parent="8mb82FppSflPmRdexe5n-2">
                    <mxGeometry x="70" y="50" width="60" height="60" as="geometry"/>
                </mxCell>
                <mxCell id="8mb82FppSflPmRdexe5n-5" value="Private subnet" style="points=[[0,0],[0.25,0],[0.5,0],[0.75,0],[1,0],[1,0.25],[1,0.5],[1,0.75],[1,1],[0.75,1],[0.5,1],[0.25,1],[0,1],[0,0.75],[0,0.5],[0,0.25]];outlineConnect=0;gradientColor=none;html=1;whiteSpace=wrap;fontSize=12;fontStyle=0;container=1;pointerEvents=0;collapsible=0;recursiveResize=0;shape=mxgraph.aws4.group;grIcon=mxgraph.aws4.group_security_group;grStroke=0;strokeColor=#147EBA;fillColor=#E6F2F8;verticalAlign=top;align=left;spacingLeft=30;fontColor=#147EBA;dashed=0;" vertex="1" parent="8mb82FppSflPmRdexe5n-42">
                    <mxGeometry x="736" y="70" width="200" height="160" as="geometry"/>
                </mxCell>
                <mxCell id="8mb82FppSflPmRdexe5n-7" value="" style="sketch=0;outlineConnect=0;fontColor=#232F3E;gradientColor=none;fillColor=#2E27AD;strokeColor=none;dashed=0;verticalLabelPosition=bottom;verticalAlign=top;align=center;html=1;fontSize=12;fontStyle=0;aspect=fixed;pointerEvents=1;shape=mxgraph.aws4.aurora_instance;" vertex="1" parent="8mb82FppSflPmRdexe5n-5">
                    <mxGeometry x="70" y="50" width="60" height="60" as="geometry"/>
                </mxCell>
                <mxCell id="8mb82FppSflPmRdexe5n-8" value="Public subnet" style="points=[[0,0],[0.25,0],[0.5,0],[0.75,0],[1,0],[1,0.25],[1,0.5],[1,0.75],[1,1],[0.75,1],[0.5,1],[0.25,1],[0,1],[0,0.75],[0,0.5],[0,0.25]];outlineConnect=0;gradientColor=none;html=1;whiteSpace=wrap;fontSize=12;fontStyle=0;container=1;pointerEvents=0;collapsible=0;recursiveResize=0;shape=mxgraph.aws4.group;grIcon=mxgraph.aws4.group_security_group;grStroke=0;strokeColor=#248814;fillColor=#E9F3E6;verticalAlign=top;align=left;spacingLeft=30;fontColor=#248814;dashed=0;" vertex="1" parent="8mb82FppSflPmRdexe5n-42">
                    <mxGeometry x="256" y="70" width="200" height="160" as="geometry"/>
                </mxCell>
                <mxCell id="8mb82FppSflPmRdexe5n-11" value="" style="outlineConnect=0;dashed=0;verticalLabelPosition=bottom;verticalAlign=top;align=center;html=1;shape=mxgraph.aws3.vpc_nat_gateway;fillColor=#F58536;gradientColor=none;" vertex="1" parent="8mb82FppSflPmRdexe5n-8">
                    <mxGeometry x="66" y="44" width="69" height="72" as="geometry"/>
                </mxCell>
                <mxCell id="8mb82FppSflPmRdexe5n-31" style="edgeStyle=orthogonalEdgeStyle;html=1;entryX=0.5;entryY=0.682;entryDx=0;entryDy=0;entryPerimeter=0;exitX=0.855;exitY=0.145;exitDx=0;exitDy=0;exitPerimeter=0;strokeWidth=2;strokeColor=#3333FF;" edge="1" parent="8mb82FppSflPmRdexe5n-42" source="8mb82FppSflPmRdexe5n-10">
                    <mxGeometry relative="1" as="geometry">
                        <mxPoint x="596" y="180.03999999999996" as="targetPoint"/>
                        <Array as="points">
                            <mxPoint x="596" y="275"/>
                        </Array>
                    </mxGeometry>
                </mxCell>
                <mxCell id="8mb82FppSflPmRdexe5n-10" value="" style="outlineConnect=0;dashed=0;verticalLabelPosition=bottom;verticalAlign=top;align=center;html=1;shape=mxgraph.aws3.application_load_balancer;fillColor=#F58534;gradientColor=none;" vertex="1" parent="8mb82FppSflPmRdexe5n-42">
                    <mxGeometry x="321.5" y="265" width="69" height="72" as="geometry"/>
                </mxCell>
                <mxCell id="8mb82FppSflPmRdexe5n-13" value="Private subnet" style="points=[[0,0],[0.25,0],[0.5,0],[0.75,0],[1,0],[1,0.25],[1,0.5],[1,0.75],[1,1],[0.75,1],[0.5,1],[0.25,1],[0,1],[0,0.75],[0,0.5],[0,0.25]];outlineConnect=0;gradientColor=none;html=1;whiteSpace=wrap;fontSize=12;fontStyle=0;container=1;pointerEvents=0;collapsible=0;recursiveResize=0;shape=mxgraph.aws4.group;grIcon=mxgraph.aws4.group_security_group;grStroke=0;strokeColor=#147EBA;fillColor=#E6F2F8;verticalAlign=top;align=left;spacingLeft=30;fontColor=#147EBA;dashed=0;" vertex="1" parent="8mb82FppSflPmRdexe5n-42">
                    <mxGeometry x="496" y="381" width="200" height="160" as="geometry"/>
                </mxCell>
                <mxCell id="8mb82FppSflPmRdexe5n-14" value="" style="sketch=0;points=[[0,0,0],[0.25,0,0],[0.5,0,0],[0.75,0,0],[1,0,0],[0,1,0],[0.25,1,0],[0.5,1,0],[0.75,1,0],[1,1,0],[0,0.25,0],[0,0.5,0],[0,0.75,0],[1,0.25,0],[1,0.5,0],[1,0.75,0]];outlineConnect=0;fontColor=#232F3E;gradientColor=#F78E04;gradientDirection=north;fillColor=#D05C17;strokeColor=#ffffff;dashed=0;verticalLabelPosition=bottom;verticalAlign=top;align=center;html=1;fontSize=12;fontStyle=0;aspect=fixed;shape=mxgraph.aws4.resourceIcon;resIcon=mxgraph.aws4.ec2;" vertex="1" parent="8mb82FppSflPmRdexe5n-13">
                    <mxGeometry x="70" y="50" width="60" height="60" as="geometry"/>
                </mxCell>
                <mxCell id="8mb82FppSflPmRdexe5n-15" value="Private subnet" style="points=[[0,0],[0.25,0],[0.5,0],[0.75,0],[1,0],[1,0.25],[1,0.5],[1,0.75],[1,1],[0.75,1],[0.5,1],[0.25,1],[0,1],[0,0.75],[0,0.5],[0,0.25]];outlineConnect=0;gradientColor=none;html=1;whiteSpace=wrap;fontSize=12;fontStyle=0;container=1;pointerEvents=0;collapsible=0;recursiveResize=0;shape=mxgraph.aws4.group;grIcon=mxgraph.aws4.group_security_group;grStroke=0;strokeColor=#147EBA;fillColor=#E6F2F8;verticalAlign=top;align=left;spacingLeft=30;fontColor=#147EBA;dashed=0;" vertex="1" parent="8mb82FppSflPmRdexe5n-42">
                    <mxGeometry x="736" y="381" width="200" height="160" as="geometry"/>
                </mxCell>
                <mxCell id="8mb82FppSflPmRdexe5n-16" value="" style="sketch=0;outlineConnect=0;fontColor=#232F3E;gradientColor=none;fillColor=#2E27AD;strokeColor=none;dashed=0;verticalLabelPosition=bottom;verticalAlign=top;align=center;html=1;fontSize=12;fontStyle=0;aspect=fixed;pointerEvents=1;shape=mxgraph.aws4.aurora_instance;" vertex="1" parent="8mb82FppSflPmRdexe5n-15">
                    <mxGeometry x="70" y="50" width="60" height="60" as="geometry"/>
                </mxCell>
                <mxCell id="8mb82FppSflPmRdexe5n-17" value="Public subnet" style="points=[[0,0],[0.25,0],[0.5,0],[0.75,0],[1,0],[1,0.25],[1,0.5],[1,0.75],[1,1],[0.75,1],[0.5,1],[0.25,1],[0,1],[0,0.75],[0,0.5],[0,0.25]];outlineConnect=0;gradientColor=none;html=1;whiteSpace=wrap;fontSize=12;fontStyle=0;container=1;pointerEvents=0;collapsible=0;recursiveResize=0;shape=mxgraph.aws4.group;grIcon=mxgraph.aws4.group_security_group;grStroke=0;strokeColor=#248814;fillColor=#E9F3E6;verticalAlign=top;align=left;spacingLeft=30;fontColor=#248814;dashed=0;" vertex="1" parent="8mb82FppSflPmRdexe5n-42">
                    <mxGeometry x="256" y="381" width="200" height="160" as="geometry"/>
                </mxCell>
                <mxCell id="8mb82FppSflPmRdexe5n-18" value="" style="outlineConnect=0;dashed=0;verticalLabelPosition=bottom;verticalAlign=top;align=center;html=1;shape=mxgraph.aws3.vpc_nat_gateway;fillColor=#F58536;gradientColor=none;" vertex="1" parent="8mb82FppSflPmRdexe5n-17">
                    <mxGeometry x="66" y="44" width="69" height="72" as="geometry"/>
                </mxCell>
                <mxCell id="8mb82FppSflPmRdexe5n-25" value="VPC" style="points=[[0,0],[0.25,0],[0.5,0],[0.75,0],[1,0],[1,0.25],[1,0.5],[1,0.75],[1,1],[0.75,1],[0.5,1],[0.25,1],[0,1],[0,0.75],[0,0.5],[0,0.25]];outlineConnect=0;gradientColor=none;html=1;whiteSpace=wrap;fontSize=12;fontStyle=0;container=0;pointerEvents=0;collapsible=0;recursiveResize=0;shape=mxgraph.aws4.group;grIcon=mxgraph.aws4.group_vpc;strokeColor=#248814;fillColor=none;verticalAlign=top;align=left;spacingLeft=30;fontColor=#AAB7B8;dashed=0;strokeWidth=2;" vertex="1" parent="8mb82FppSflPmRdexe5n-42">
                    <mxGeometry x="190" width="820" height="600" as="geometry"/>
                </mxCell>
                <mxCell id="8mb82FppSflPmRdexe5n-28" style="edgeStyle=none;html=1;strokeColor=#3333FF;strokeWidth=2;" edge="1" parent="8mb82FppSflPmRdexe5n-42" source="8mb82FppSflPmRdexe5n-26" target="8mb82FppSflPmRdexe5n-10">
                    <mxGeometry relative="1" as="geometry"/>
                </mxCell>
                <mxCell id="8mb82FppSflPmRdexe5n-26" value="User" style="sketch=0;outlineConnect=0;fontColor=#232F3E;gradientColor=none;strokeColor=#232F3E;fillColor=#ffffff;dashed=0;verticalLabelPosition=bottom;verticalAlign=top;align=center;html=1;fontSize=12;fontStyle=0;aspect=fixed;shape=mxgraph.aws4.resourceIcon;resIcon=mxgraph.aws4.user;strokeWidth=2;" vertex="1" parent="8mb82FppSflPmRdexe5n-42">
                    <mxGeometry y="271" width="60" height="60" as="geometry"/>
                </mxCell>
                <mxCell id="8mb82FppSflPmRdexe5n-27" value="" style="outlineConnect=0;dashed=0;verticalLabelPosition=bottom;verticalAlign=top;align=center;html=1;shape=mxgraph.aws3.internet_2;fillColor=#D2D3D3;gradientColor=none;strokeWidth=2;" vertex="1" parent="8mb82FppSflPmRdexe5n-42">
                    <mxGeometry x="80" y="265" width="79.5" height="54" as="geometry"/>
                </mxCell>
                <mxCell id="8mb82FppSflPmRdexe5n-32" style="edgeStyle=orthogonalEdgeStyle;html=1;entryX=0.5;entryY=0.409;entryDx=0;entryDy=0;entryPerimeter=0;exitX=0.855;exitY=0.855;exitDx=0;exitDy=0;exitPerimeter=0;strokeWidth=2;strokeColor=#3333FF;" edge="1" parent="8mb82FppSflPmRdexe5n-42" source="8mb82FppSflPmRdexe5n-10">
                    <mxGeometry relative="1" as="geometry">
                        <mxPoint x="596" y="439.9799999999998" as="targetPoint"/>
                        <Array as="points">
                            <mxPoint x="386" y="327"/>
                            <mxPoint x="596" y="327"/>
                        </Array>
                    </mxGeometry>
                </mxCell>
                <mxCell id="8mb82FppSflPmRdexe5n-33" style="edgeStyle=orthogonalEdgeStyle;html=1;strokeColor=#3333FF;strokeWidth=2;" edge="1" parent="8mb82FppSflPmRdexe5n-42" source="8mb82FppSflPmRdexe5n-1" target="8mb82FppSflPmRdexe5n-7">
                    <mxGeometry relative="1" as="geometry"/>
                </mxCell>
                <mxCell id="8mb82FppSflPmRdexe5n-34" style="edgeStyle=orthogonalEdgeStyle;html=1;strokeColor=#3333FF;strokeWidth=2;" edge="1" parent="8mb82FppSflPmRdexe5n-42" source="8mb82FppSflPmRdexe5n-14" target="8mb82FppSflPmRdexe5n-16">
                    <mxGeometry relative="1" as="geometry"/>
                </mxCell>
                <mxCell id="8mb82FppSflPmRdexe5n-23" value="&lt;font style=&quot;font-size: 14px;&quot;&gt;&lt;b&gt;Auto Scaling group&lt;/b&gt;&lt;/font&gt;" style="points=[[0,0],[0.25,0],[0.5,0],[0.75,0],[1,0],[1,0.25],[1,0.5],[1,0.75],[1,1],[0.75,1],[0.5,1],[0.25,1],[0,1],[0,0.75],[0,0.5],[0,0.25]];outlineConnect=0;gradientColor=none;html=1;whiteSpace=wrap;fontSize=12;fontStyle=0;container=1;pointerEvents=0;collapsible=0;recursiveResize=0;shape=mxgraph.aws4.groupCenter;grIcon=mxgraph.aws4.group_auto_scaling_group;grStroke=1;strokeColor=#D86613;fillColor=none;verticalAlign=top;align=center;fontColor=#D86613;dashed=1;spacingTop=25;rotation=-90;strokeWidth=2;" vertex="1" parent="8mb82FppSflPmRdexe5n-42">
                    <mxGeometry x="392.71000000000004" y="232.24999999999994" width="406.57" height="148.75" as="geometry"/>
                </mxCell>
                <mxCell id="8mb82FppSflPmRdexe5n-24" value="Application &lt;br&gt;Load Balancer" style="text;html=1;strokeColor=none;fillColor=none;align=center;verticalAlign=middle;whiteSpace=wrap;rounded=0;dashed=1;strokeWidth=2;" vertex="1" parent="8mb82FppSflPmRdexe5n-42">
                    <mxGeometry x="406" y="290" width="90" height="30" as="geometry"/>
                </mxCell>
                <mxCell id="8mb82FppSflPmRdexe5n-38" value="Availability zone" style="sketch=0;outlineConnect=0;gradientColor=none;html=1;whiteSpace=wrap;fontSize=12;fontStyle=0;shape=mxgraph.aws4.group;grIcon=mxgraph.aws4.group_availability_zone;strokeColor=#545B64;fillColor=none;verticalAlign=top;align=left;spacingLeft=30;fontColor=#545B64;dashed=1;strokeWidth=2;" vertex="1" parent="8mb82FppSflPmRdexe5n-42">
                    <mxGeometry x="230" y="33" width="740" height="220" as="geometry"/>
                </mxCell>
                <mxCell id="8mb82FppSflPmRdexe5n-39" value="Availability zone" style="sketch=0;outlineConnect=0;gradientColor=none;html=1;whiteSpace=wrap;fontSize=12;fontStyle=0;shape=mxgraph.aws4.group;grIcon=mxgraph.aws4.group_availability_zone;strokeColor=#545B64;fillColor=none;verticalAlign=top;align=left;spacingLeft=30;fontColor=#545B64;dashed=1;strokeWidth=2;" vertex="1" parent="8mb82FppSflPmRdexe5n-42">
                    <mxGeometry x="230" y="351" width="740" height="220" as="geometry"/>
                </mxCell>
                <mxCell id="8mb82FppSflPmRdexe5n-40" value="Primary DB Instance" style="text;html=1;strokeColor=none;fillColor=none;align=center;verticalAlign=middle;whiteSpace=wrap;rounded=0;dashed=1;strokeWidth=2;fontSize=14;" vertex="1" parent="8mb82FppSflPmRdexe5n-42">
                    <mxGeometry x="791" y="190" width="90" height="30" as="geometry"/>
                </mxCell>
                <mxCell id="8mb82FppSflPmRdexe5n-41" value="Replica (Failover Handle)" style="text;html=1;strokeColor=none;fillColor=none;align=center;verticalAlign=middle;whiteSpace=wrap;rounded=0;dashed=1;strokeWidth=2;fontSize=14;" vertex="1" parent="8mb82FppSflPmRdexe5n-42">
                    <mxGeometry x="776.5" y="500" width="119" height="30" as="geometry"/>
                </mxCell>
            </root>
        </mxGraphModel>
    </diagram>
</mxfile>